<?xml version="1.0" standalone="no"?>
<!DOCTYPE svg PUBLIC "-//W3C//DTD SVG 20010904//EN"
 "http://www.w3.org/TR/2001/REC-SVG-20010904/DTD/svg10.dtd">
<svg version="1.0" xmlns="http://www.w3.org/2000/svg"
 width="354.000000pt" height="353.000000pt" viewBox="0 0 354.000000 353.000000"
 preserveAspectRatio="xMidYMid meet">

<g transform="translate(0.000000,353.000000) scale(0.100000,-0.100000)"
fill="#000000" stroke="none">
<path d="M1555 2719 c-250 -53 -402 -133 -565 -298 -102 -103 -219 -295 -250
-409 -53 -200 -51 -430 6 -621 18 -61 88 -199 137 -270 55 -80 176 -198 265
-259 132 -90 190 -117 337 -155 75 -19 113 -21 660 -24 l580 -4 -146 148 c-80
81 -190 194 -244 250 l-98 103 -278 0 c-166 0 -299 4 -331 11 -197 41 -362
199 -413 395 -68 261 104 562 360 628 76 20 207 20 296 0 154 -35 313 -192
357 -351 24 -90 21 -233 -6 -321 l-23 -74 181 -178 181 -178 23 37 c124 195
183 445 159 664 -20 172 -97 367 -199 502 -203 269 -500 417 -831 414 -65 -1
-136 -5 -158 -10z"/>
</g>
</svg>
